<?xml version="1.0" standalone="no"?>
<!DOCTYPE svg PUBLIC "-//W3C//DTD SVG 20010904//EN"
 "http://www.w3.org/TR/2001/REC-SVG-20010904/DTD/svg10.dtd">
<svg version="1.0" xmlns="http://www.w3.org/2000/svg"
 width="640.000000pt" height="640.000000pt" viewBox="0 0 640.000000 640.000000"
 preserveAspectRatio="xMidYMid meet">

<g transform="translate(0.000000,640.000000) scale(0.100000,-0.100000)"
fill="#000000" stroke="none">
<path d="M0 3200 l0 -3200 3200 0 3200 0 0 3200 0 3200 -3200 0 -3200 0 0
-3200z m3635 2211 c37 -16 74 -52 100 -95 9 -16 18 -15 114 15 61 20 105 40
109 49 24 69 122 63 122 -8 0 -51 -60 -80 -108 -52 -13 8 -42 2 -115 -23 l-98
-32 -3 -61 c-6 -157 -165 -257 -306 -193 -74 34 -117 87 -135 167 -5 24 -12
32 -28 32 -12 0 -52 3 -88 6 -62 6 -67 5 -74 -15 -18 -58 -97 -95 -154 -71
-54 22 -76 56 -76 115 0 45 4 58 29 84 61 64 161 47 197 -33 l19 -44 80 -4
c93 -4 100 -2 100 20 0 25 41 86 79 118 64 53 150 63 236 25z m961 -130 c112
-51 163 -196 107 -305 -16 -30 -16 -30 28 -69 24 -22 58 -50 76 -64 31 -24 32
-24 58 -7 30 20 101 22 136 4 86 -44 105 -160 38 -228 -103 -106 -282 -1 -240
140 14 47 24 33 -93 131 -43 37 -46 38 -63 22 -44 -44 -159 -60 -229 -30 l-34
14 -45 -57 c-38 -48 -44 -62 -39 -88 4 -25 1 -36 -17 -53 -40 -37 -92 -22
-104 31 -5 21 -1 33 20 54 16 16 33 24 45 21 14 -4 31 10 64 53 l46 58 -30 49
c-57 92 -47 197 28 277 60 63 167 84 248 47z m-2476 -359 c52 -26 80 -74 80
-137 l0 -53 100 -56 c87 -50 104 -56 135 -50 27 5 41 2 55 -11 26 -23 25 -70
0 -95 -23 -23 -27 -24 -66 -10 -26 9 -48 2 -189 -63 l-160 -73 -1 -70 c-2
-151 -100 -244 -245 -231 -79 7 -133 44 -171 117 -74 140 15 303 173 317 76 7
136 -15 184 -68 l36 -40 166 78 c92 43 168 83 170 90 5 13 -33 39 -142 98
l-70 38 -39 -26 c-45 -31 -92 -35 -142 -11 -99 47 -103 202 -6 253 46 25 87
26 132 3z m1242 -649 c84 -60 117 -184 73 -277 -48 -101 -180 -153 -282 -111
-19 8 -36 15 -38 15 -4 0 -95 -120 -95 -126 0 -3 11 -19 25 -35 40 -48 57
-145 36 -202 -8 -22 -5 -27 46 -55 54 -31 83 -40 83 -24 0 17 60 42 100 42
137 0 197 -159 95 -249 -30 -26 -44 -31 -88 -31 -93 0 -147 57 -147 153 0 44
-1 46 -56 77 l-56 31 -29 -29 c-92 -94 -257 -87 -335 15 -133 175 30 410 242
348 53 -15 57 -15 69 2 7 10 27 35 44 57 17 21 31 43 31 48 0 6 -11 23 -24 39
-14 16 -30 54 -37 84 -11 48 -10 63 5 111 19 59 68 117 120 140 20 9 57 13
103 11 62 -2 77 -7 115 -34z m702 -329 c9 -8 16 -19 16 -23 0 -4 81 -13 180
-19 174 -11 182 -10 200 8 42 42 105 15 103 -43 -1 -31 10 -45 121 -156 l123
-123 40 11 c138 37 222 -145 101 -219 -60 -37 -124 -22 -165 39 -25 38 -29 77
-11 116 11 25 7 31 -113 151 -107 108 -128 124 -156 124 -23 0 -37 7 -48 23
-14 22 -24 24 -192 35 -172 12 -177 12 -198 -8 -43 -40 -105 -14 -105 45 0 17
5 36 12 43 17 17 74 15 92 -4z m367 -269 c83 -30 149 -120 149 -204 0 -106
-74 -199 -176 -222 -47 -11 -54 -15 -54 -36 0 -12 9 -32 20 -43 41 -41 13
-100 -46 -100 -36 0 -64 28 -64 65 -1 14 -49 54 -176 144 l-176 123 -38 -21
c-72 -40 -157 -18 -200 51 -53 87 6 201 110 215 91 12 176 -85 153 -175 l-10
-38 71 -50 c39 -28 120 -86 181 -128 115 -82 137 -87 143 -34 3 21 -3 26 -35
36 -21 6 -58 30 -81 54 -118 117 -73 307 87 364 48 18 90 17 142 -1z m-2419
-1480 l0 -660 -348 0 -349 0 0 385 0 385 115 0 115 0 3 -272 2 -273 115 0 115
0 0 543 c0 299 3 547 7 551 4 3 56 5 116 4 l108 -3 1 -660z m818 270 l0 -115
-115 0 -115 0 0 115 0 115 115 0 115 0 0 -115z m280 0 l0 -115 -120 0 -120 0
0 115 0 115 120 0 120 0 0 -115z m-550 -290 c0 -128 1 -135 20 -135 19 0 20 7
20 135 l0 135 255 0 255 0 0 -135 c0 -128 1 -135 20 -135 19 0 20 7 20 135 l0
135 440 0 441 0 -3 -117 -3 -118 -320 0 c-296 0 -320 -2 -323 -18 -3 -16 18
-17 322 -17 l326 0 0 -120 0 -120 -735 0 -735 0 0 -135 0 -135 -115 0 -115 0
0 135 0 134 -136 3 -135 3 0 245 c0 135 0 248 1 253 0 4 113 7 250 7 l250 0 0
-135z"/>
<path d="M2303 2073 c-21 -7 -15 -33 7 -33 11 0 20 6 20 14 0 18 -11 25 -27
19z"/>
<path d="M2836 2073 c-13 -14 -5 -33 14 -33 11 0 20 6 20 14 0 15 -24 28 -34
19z"/>
</g>
</svg>
